Coordinates
version=1
nRows=17
nColumns=24
inDegrees=yes

Units are S.I. units (second, meters, Newtons, ...)
Angles are in degrees.

endheader
time	pelvis_tilt	pelvis_list	pelvis_rotation	pelvis_tx	pelvis_ty	pelvis_tz	hip_flexion_r	hip_adduction_r	hip_rotation_r	knee_angle_r	ankle_angle_r	subtalar_angle_r	mtp_angle_r	hip_flexion_l	hip_adduction_l	hip_rotation_l	knee_angle_l	ankle_angle_l	subtalar_angle_l	mtp_angle_l	lumbar_extension	lumbar_bending	lumbar_rotation
      4.21000000	     13.01127435	      1.16204574	      6.40772732	     -0.49069280	      0.92856710	     -0.25002448	      4.93018257	     -3.58856834	     -3.05254063	     -2.15427708	     14.50253358	      1.18176907	      0.00000000	    -27.91281062	      1.21727795	     14.02830594	    -10.47443843	     21.15761651	      2.44884122	      0.00000000	    -29.59205872	      2.70843271	    -16.25812674
      4.21500000	     13.01771245	      0.89166070	      6.50060922	     -0.48412265	      0.92802239	     -0.24960161	      4.91295535	     -3.23670218	     -2.83699402	     -2.32739117	     14.44485246	      0.98818157	      0.00000000	    -28.05393468	      0.85529658	     13.85424698	    -11.05566581	     21.19691831	      2.86189310	      0.00000000	    -29.53528183	      3.05625868	    -16.29526159
      4.22000000	     13.16862748	      0.57980908	      6.49598696	     -0.47755186	      0.92763068	     -0.24900119	      4.77058920	     -2.80519055	     -2.50658426	     -2.60511837	     14.41560416	      0.76559769	      0.00000000	    -28.34828447	      0.47152088	     13.49062311	    -11.63485057	     21.18614427	      3.35554777	      0.00000000	    -29.64989461	      3.41228416	    -16.23690869
      4.22500000	     13.28247180	      0.22211453	      6.53635375	     -0.47087994	      0.92725201	     -0.24846294	      4.66429763	     -2.32883665	     -2.24112727	     -2.96920087	     14.41758632	      0.56991084	      0.00000000	    -28.57904251	      0.03327364	     13.17191951	    -12.26322037	     21.15598862	      3.82619517	      0.00000000	    -29.70277704	      3.83030245	    -16.15854072
      4.23000000	     13.31615156	     -0.17491507	      6.61586407	     -0.46411121	      0.92684982	     -0.24798777	      4.64224245	     -1.82149747	     -2.04557851	     -3.41385900	     14.42462861	      0.42788742	      0.00000000	    -28.69626117	     -0.44379722	     12.91379320	    -12.94782531	     21.08485581	      4.24794543	      0.00000000	    -29.64290280	      4.30254512	    -16.09821354
      4.23500000	     13.40787307	     -0.60091484	      6.66000996	     -0.45730706	      0.92652973	     -0.24738119	      4.56688382	     -1.25938082	     -1.78672663	     -3.92697320	     14.43641213	      0.21265896	      0.00000000	    -28.85716170	     -0.95180013	     12.50988306	    -13.66691244	     20.99540509	      4.82084028	      0.00000000	    -29.64983256	      4.77992902	    -16.00102556
      4.24000000	     13.52494640	     -1.05198127	      6.67659846	     -0.45046370	      0.92626322	     -0.24672057	      4.47304698	     -0.65803956	     -1.50888204	     -4.50850286	     14.45522895	     -0.01939822	      0.00000000	    -29.02873222	     -1.47269621	     12.06268306	    -14.42111778	     20.84933799	      5.37803443	      0.00000000	    -29.68444933	      5.27073357	    -15.86914408
      4.24500000	     13.71386608	     -1.51730132	      6.63212468	     -0.44361512	      0.92608027	     -0.24595177	      4.30614155	     -0.01890654	     -1.11565400	     -5.13350049	     14.47145048	     -0.31075955	      0.00000000	    -29.26506986	     -1.98930034	     11.51876333	    -15.20649176	     20.65734466	      5.99723173	      0.00000000	    -29.80645682	      5.75470009	    -15.69084971
      4.25000000	     13.76398303	     -2.01244831	      6.70872211	     -0.43660671	      0.92583199	     -0.24534806	      4.26150026	      0.62511104	     -0.94006818	     -5.78871196	     14.49981374	     -0.48840758	      0.00000000	    -29.30859669	     -2.56975927	     11.10774577	    -16.07012231	     20.41879070	      6.55192675	      0.00000000	    -29.73200987	      6.30555965	    -15.56085263
      4.25500000	     13.87772514	     -2.51413826	      6.70553021	     -0.42961379	      0.92565274	     -0.24455800	      4.15170085	      1.30501519	     -0.63539521	     -6.46728145	     14.51603351	     -0.77851684	      0.00000000	    -29.39797616	     -3.13868960	     10.53394156	    -16.98593220	     20.14585330	      7.23552310	      0.00000000	    -29.74781597	      6.82525192	    -15.39442081
      4.26000000	     13.93610910	     -3.04248442	      6.74721428	     -0.42251679	      0.92546138	     -0.24385917	      4.08951129	      2.00062354	     -0.40870887	     -7.17510773	     14.54110970	     -0.98537792	      0.00000000	    -29.40499968	     -3.74267786	     10.05839970	    -17.93854375	     19.82794891	      7.88738375	      0.00000000	    -29.67733447	      7.39348390	    -15.24791546
      4.26500000	     14.05514437	     -3.54868149	      6.71500587	     -0.41547085	      0.92535037	     -0.24296517	      3.95761459	      2.70264120	     -0.04876541	     -7.88773627	     14.54271753	     -1.33815265	      0.00000000	    -29.45036693	     -4.31169307	      9.41929112	    -18.94660692	     19.42955113	      8.60375931	      0.00000000	    -29.70090644	      7.88717403	    -15.03725023
      4.27000000	     14.08679265	     -4.07861672	      6.78453938	     -0.40829769	      0.92519907	     -0.24225010	      3.89398212	      3.40311235	      0.13134872	     -8.59902067	     14.58477536	     -1.50934401	      0.00000000	    -29.35864454	     -4.93638871	      8.93898275	    -20.01788864	     19.00140677	      9.28077404	      0.00000000	    -29.58815173	      8.46168013	    -14.91627069
      4.27500000	     14.16582391	     -4.59492030	      6.75666005	     -0.40118014	      0.92510638	     -0.24130468	      3.77266712	      4.12178350	      0.47398071	     -9.29825904	     14.58279378	     -1.89888716	      0.00000000	    -29.29289628	     -5.52464439	      8.28785230	    -21.14406851	     18.50954481	     10.02867283	      0.00000000	    -29.56043287	      8.95813232	    -14.71026632
      4.28000000	     14.18024485	     -5.11094560	      6.83637486	     -0.39395754	      0.92500643	     -0.24057383	      3.68751334	      4.80915991	      0.61860480	     -9.97177881	     14.63585086	     -2.03332916	      0.00000000	    -29.10739587	     -6.15050733	      7.79867908	    -22.33321079	     17.95429374	     10.72456106	      0.00000000	    -29.42475853	      9.51784987	    -14.62644007
      4.28500000	     14.20542804	     -5.61434096	      6.88251863	     -0.38676837	      0.92492560	     -0.23969897	      3.57835961	      5.50394386	      0.83586826	    -10.62400287	     14.68155964	     -2.34910171	      0.00000000	    -28.89420325	     -6.76773820	      7.22860515	    -23.58621033	     17.36538246	     11.45609615	      0.00000000	    -29.31768866	     10.02497911	    -14.49598092
      4.29000000	     14.21526645	     -6.10561422	      6.94289967	     -0.37954626	      0.92488870	     -0.23887793	      3.45791417	      6.17689507	      1.02327250	    -11.23847420	     14.71953755	     -2.56420583	      0.00000000	    -28.62926414	     -7.37908054	      6.71807068	    -24.87899616	     16.67425034	     12.16724697	      0.00000000	    -29.18576282	     10.53584650	    -14.40213005
